<svg xmlns="http://www.w3.org/2000/svg" width="31.753" height="40.282"><g data-name="Agrupar 1934"><g data-name="Agrupar 3"><path data-name="Caminho 4" d="M27.18 1.541a3.037 3.037 0 0 1 3.031 3.031V35.71a3.037 3.037 0 0 1-3.031 3.031H4.573a3.037 3.037 0 0 1-3.031-3.031V4.573a3.037 3.037 0 0 1 3.031-3.031H27.18m0-1.541H4.573A4.583 4.583 0 0 0 0 4.574V35.71a4.583 4.583 0 0 0 4.573 4.573H27.18a4.583 4.583 0 0 0 4.573-4.573V4.573A4.583 4.583 0 0 0 27.18 0z" fill="#fff"/></g><g data-name="Agrupar 4"><path data-name="Linha 1" fill="none" stroke="#fff" stroke-miterlimit="10" d="M5.343 10.636h21.066"/></g><g data-name="Agrupar 5"><path data-name="Linha 2" fill="none" stroke="#fff" stroke-miterlimit="10" d="M5.343 17.007h21.066"/></g><g data-name="Agrupar 6"><path data-name="Linha 3" fill="none" stroke="#fff" stroke-miterlimit="10" d="M5.343 23.327h21.066"/></g><g data-name="Agrupar 7"><path data-name="Linha 4" fill="none" stroke="#fff" stroke-miterlimit="10" d="M5.343 29.647h10.533"/></g></g></svg>