<svg class="icon-tire" data-name="Group 2064" xmlns="http://www.w3.org/2000/svg" width="17.368" height="35.306"><path data-name="Path 53" d="M13.062 30.603l-.6-.6 4.9-4.9v-5.4l-4.383 4.383-.6-.6 4.979-4.979v-5.959l-4.383 4.383-.6-.6 4.979-4.979V5.503l-4.306 4.305-.6-.6 4.887-4.887a4.629 4.629 0 0 0-4.616-4.325H9.28v35.3h3.457a4.633 4.633 0 0 0 4.63-4.63v-4.378z" fill="#969696"/><path data-name="Path 54" d="M8.441 0H4.63A4.628 4.628 0 0 0 .043 4.034l5.178 5.178-.6.6L0 5.18v5.852l5.3 5.3-.6.6-4.7-4.7V18.2l5.3 5.3-.6.6L0 19.4v5.4l5.222 5.222-.6.6L0 25.98v4.7a4.633 4.633 0 0 0 4.63 4.63h3.811z" fill="#969696"/></svg>