<svg xmlns="http://www.w3.org/2000/svg" width="31.753" height="40.282" viewBox="0 0 31.753 40.282">
  <g id="Agrupar_1934" data-name="Agrupar 1934" transform="translate(-113.902 -397.836)">
    <g id="Agrupar_3" data-name="Agrupar 3" transform="translate(113.902 397.836)">
      <path id="Caminho_4" data-name="Caminho 4" d="M37.58,230.741a3.037,3.037,0,0,1,3.031,3.031V264.91a3.037,3.037,0,0,1-3.031,3.031H14.973a3.037,3.037,0,0,1-3.031-3.031V233.773a3.037,3.037,0,0,1,3.031-3.031H37.58m0-1.541H14.973a4.583,4.583,0,0,0-4.573,4.573V264.91a4.583,4.583,0,0,0,4.573,4.573H37.58a4.583,4.583,0,0,0,4.573-4.573V233.773A4.583,4.583,0,0,0,37.58,229.2Z" transform="translate(-10.4 -229.2)" fill="#fff"/>
    </g>
    <g id="Agrupar_4" data-name="Agrupar 4" transform="translate(119.245 408.472)">
      <line id="Linha_1" data-name="Linha 1" x2="21.066" fill="none" stroke="#fff" stroke-miterlimit="10" stroke-width="1"/>
    </g>
    <g id="Agrupar_5" data-name="Agrupar 5" transform="translate(119.245 414.843)">
      <line id="Linha_2" data-name="Linha 2" x2="21.066" fill="none" stroke="#fff" stroke-miterlimit="10" stroke-width="1"/>
    </g>
    <g id="Agrupar_6" data-name="Agrupar 6" transform="translate(119.245 421.163)">
      <line id="Linha_3" data-name="Linha 3" x2="21.066" fill="none" stroke="#fff" stroke-miterlimit="10" stroke-width="1"/>
    </g>
    <g id="Agrupar_7" data-name="Agrupar 7" transform="translate(119.245 427.483)">
      <line id="Linha_4" data-name="Linha 4" x2="10.533" fill="none" stroke="#fff" stroke-miterlimit="10" stroke-width="1"/>
    </g>
  </g>
</svg>
