<svg id="Group_1970" data-name="Group 1970" xmlns="http://www.w3.org/2000/svg" width="59.449" height="59.449" viewBox="0 0 59.449 59.449">
  <path id="Path_2" data-name="Path 2" d="M29.724,3.659A27.565,27.565,0,1,1,2.159,31.224,27.614,27.614,0,0,1,29.724,3.659m0,44.479A16.913,16.913,0,1,0,12.811,31.224,16.894,16.894,0,0,0,29.724,48.138m0-46.638A29.724,29.724,0,1,0,59.449,31.224,29.733,29.733,0,0,0,29.724,1.5Zm0,44.479A14.754,14.754,0,1,1,44.479,31.224,14.774,14.774,0,0,1,29.724,45.979Z" transform="translate(0 -1.5)" fill="#e6e6e6"/>
</svg>
