<svg id="Group_2064" class="icon-tire" data-name="Group 2064" xmlns="http://www.w3.org/2000/svg" width="17.368" height="35.306" viewBox="0 0 17.368 35.306">
  <path id="Path_53" data-name="Path 53" d="M60.042,110.123l-.6-.6,4.9-4.9v-5.4l-4.383,4.383-.6-.6,4.979-4.979V92.068l-4.383,4.383-.6-.6,4.979-4.979V85.023l-4.306,4.305-.6-.6,4.887-4.887a4.629,4.629,0,0,0-4.616-4.325H56.26v35.3h3.457a4.633,4.633,0,0,0,4.63-4.63v-4.378Z" transform="translate(-46.98 -79.52)" fill="#969696"/>
  <path id="Path_54" data-name="Path 54" d="M45.561,79.52H41.75a4.628,4.628,0,0,0-4.587,4.034l5.178,5.178-.6.6L37.12,84.7v5.852l5.3,5.3-.6.6-4.7-4.7v5.968l5.3,5.3-.6.6-4.7-4.7v5.4l5.222,5.222-.6.6L37.12,105.5v4.7a4.633,4.633,0,0,0,4.63,4.63h3.811Z" transform="translate(-37.12 -79.52)" fill="#969696"/>
</svg>
